<?xml version="1.0" encoding="utf-8"?>
<!-- Generator: Adobe Illustrator 24.1.0, SVG Export Plug-In . SVG Version: 6.00 Build 0)  -->
<svg version="1.1" xmlns="http://www.w3.org/2000/svg" xmlns:xlink="http://www.w3.org/1999/xlink" x="0px" y="0px"
	 viewBox="0 0 1360.6 1360.6" style="enable-background:new 0 0 1360.6 1360.6;" xml:space="preserve">
<style type="text/css">
	.st0{fill:none;}
</style>
<g id="Calque_1">
	<path class="st0" d="M525.4,769.7c-81.4-140.9-137.7-278.6-163-387.1s-19.6-188,23.2-212.7c46.2-26.7,126.1,16,215.4,105.3
		c76.2,76.1,159.2,186,234.1,315.7c78,135.2,133.1,267.4,159.8,373.8c29,115.4,24.5,200.4-19.9,226.1c-38.8,22.4-101.3-4.1-173.3-66
		C714.9,1050,614.4,923.8,525.4,769.7z"/>
	<path class="st0" d="M680.2,859.1c-162.7,0-310.1-20-416.7-52.4s-172.6-77-172.6-126.4c0-53.3,76.9-101.2,198.9-133.9
		c104-27.9,240.7-44.9,390.4-44.9c156.1,0,298.1,18.4,403.6,48.5c114.4,32.6,185.8,78.9,185.8,130.3c0,44.7-54.2,85.7-143.8,117
		C1017.7,835.2,858.2,859.1,680.2,859.1z"/>
	<g id="conducteurs">
		<path class="st0" d="M590.9,835.1C450,753.8,332.3,662.7,256.2,581.4s-110.9-153-86.3-195.8c26.7-46.2,117.2-49.2,239.2-16.5
			c104,27.8,230.9,81.5,360.5,156.3c135.2,78.1,249,165,325.3,243.8c82.8,85.4,121.4,161.3,95.8,205.7
			c-22.4,38.8-89.8,47.1-183.1,29.5C895.1,983.2,745,924.1,590.9,835.1z"/>
		<path class="st0" d="M501.5,680.2c0-162.7,20-310.1,52.4-416.7s77-172.6,126.4-172.6c53.3,0,101.2,76.9,133.9,198.9
			c27.9,104,44.9,240.7,44.9,390.4c0,156.1-18.4,298.1-48.5,403.6c-32.6,114.4-78.9,185.8-130.3,185.8c-44.7,0-85.7-54.2-117-143.8
			C525.4,1017.7,501.5,858.2,501.5,680.2z"/>
	</g>
	<circle class="st0" cx="541.4" cy="299" r="24.4"/>
	<circle class="st0" cx="883.5" cy="967.3" r="24.4"/>
</g>
<g id="Calque_2">
	<circle class="st0" cx="932.3" cy="568.8" r="24.4"/>
	<circle class="st0" cx="329.9" cy="707.6" r="24.4"/>
	<path class="st0" d="M769.7,835.2c-140.9,81.3-278.6,137.7-387.1,163s-188,19.6-212.7-23.2c-26.7-46.2,16-126.1,105.3-215.4
		c76.1-76.2,186-159.2,315.7-234.1C726,447.4,858.2,392.4,964.6,365.7c115.4-29,200.4-24.5,226.1,19.9c22.4,38.8-4.1,101.3-66,173.3
		C1050,645.7,923.8,746.2,769.7,835.2z"/>
	<path class="st0" d="M835.1,769.7c-81.4,140.9-172.4,258.5-253.7,334.7s-153,110.9-195.8,86.3c-46.2-26.7-49.2-117.2-16.5-239.2
		c27.8-104,81.5-230.9,156.3-360.5c78.1-135.2,165-249,243.8-325.3c85.4-82.8,161.3-121.4,205.7-95.8
		c38.8,22.4,47.1,89.8,29.5,183.1C983.2,465.5,924.1,615.6,835.1,769.7z"/>
</g>
</svg>
