<?xml version="1.0" encoding="utf-8"?>
<!-- Generator: Adobe Illustrator 24.1.0, SVG Export Plug-In . SVG Version: 6.00 Build 0)  -->
<svg version="1.1" id="Calque_1" xmlns="http://www.w3.org/2000/svg" xmlns:xlink="http://www.w3.org/1999/xlink" x="0px" y="0px"
	 viewBox="0 0 1360.6 1360.6" style="enable-background:new 0 0 1360.6 1360.6;" xml:space="preserve">
<g>
	<path d="M366.9,642.9c0,111.4-71.9,129.4-140.8,129.4h-95.3V513.9h95.3C295,513.9,366.9,531.8,366.9,642.9z M308.2,642.9
		c0-74.1-36.3-77.7-82.1-77.7h-36.7V721h36.7C271.9,721,308.2,717.3,308.2,642.9z"/>
	<path d="M385.2,721h52.4v-84.7l-45.1,2.2v-51.3l69.7-3.7c20.5-1.1,31.9,10.3,31.9,30.8V721h52.4v51.3H385.2V721z M426.6,539.5
		c0-18.7,12.8-29.3,34.5-29.3c21.6,0,35.2,10.6,35.2,29.3c0,19.1-13.6,29.3-35.2,29.3C439.4,568.9,426.6,558.6,426.6,539.5z"/>
	<path d="M714.4,772.3V761l11-33h-14.7c-9.5,24.6-27.1,48-73,48c-53.5,0-80.3-44-80.3-96.4c0-52.4,26.8-96.1,80.3-96.1
		c45.8,0,63.4,23.5,73,48h14.7l-11-33v-95.7h58.7v269.5H714.4z M665.3,634.9c-31.5,0-49.1,13.6-49.1,44.7
		c0,31.2,17.6,45.1,49.1,45.1c31.5,0,49.1-13.9,49.1-45.1C714.4,648.4,696.8,634.9,665.3,634.9z"/>
	<path d="M912.3,721h52.4v-84.7l-45.1,2.2v-51.3l69.7-3.7c20.5-1.1,31.9,10.3,31.9,30.8V721h52.4v51.3H912.3V721z M953.8,539.5
		c0-18.7,12.8-29.3,34.5-29.3c21.6,0,35.2,10.6,35.2,29.3c0,19.1-13.6,29.3-35.2,29.3C966.6,568.9,953.8,558.6,953.8,539.5z"/>
	<path d="M1229.8,721v51.3l-95.7,3.7c-20.2,0.7-31.2-11-31.2-31.2V638.5h-44v-51.3h44v-34.8l58.7-18.3v53.2h60.9v51.3h-60.9v86.2
		L1229.8,721z"/>
</g>
</svg>
